<?xml version="1.0" encoding="UTF-8"?>
<svg id="Layer_1" data-name="Layer 1" xmlns="http://www.w3.org/2000/svg" version="1.1" viewBox="0 0 120 36">
  <defs>
    <style>
      .cls-1 {
        fill: #17134a;
        stroke-width: 0px;
      }
    </style>
  </defs>
  <path class="cls-1" d="M6.953,35.703c-1.889-.01-2.955-1.044-3.469-1.974-1.203-2.179-.936-6.098.821-11.962-3.019-.615-4.464-3.405-3.899-7.031C1.079,10.413,3.555,6.425,7.038,3.795c2.257-1.704,5.081-2.838,8.168-3.282,2.84-.409,5.839-.235,8.669.5,3.244.843,5.748,2.6,7.241,5.076,1.279,2.122,1.77,4.706,1.384,7.278-.656,4.362-3.463,8.532-7.703,11.44-2.94,2.018-6.545,3.475-10.718,4.334-.776,1.676-3.36,6.562-7.127,6.562h0ZM6.464,22.106c-2.134,7.012-1.607,9.635-1.083,10.583.231.416.601.854,1.555.854,2.838,0,5.168-5.205,5.577-6.17.04-.096.125-.164.227-.182,1.053-.2,6.937-1.409,10.833-4.157,3.713-2.62,6.222-6.211,6.789-9.983.542-3.604-.976-8.373-7.031-9.947-5.406-1.406-11.148-.48-14.984,2.413-3.041,2.295-5.212,5.776-5.8,9.553-.226,1.445-.235,4.214,2.411,4.635,1.151-3.748,3.693-9.46,3.958-10.045.31-.685.495-1.085.595-1.301.062-.13.182-.224.323-.254,1.856-.388,6.631-1.195,9.338-.02,2.118.921,2.749,2.363,2.904,3.411.366,2.472-1.535,5.326-3.582,7.059-2.997,2.537-7.727,3.911-12.031,3.551ZM7.145,19.988c3.584.165,7.52-1.023,9.945-3.075,1.55-1.312,3.071-3.544,2.842-5.099-.112-.75-.643-1.322-1.628-1.749-1.692-.735-5.097-.387-7.195-.007-.63,1.381-2.458,5.484-3.965,9.93ZM43.085,27.216h-2.303c-.085,0-.154-.069-.155-.154V8.315c0-.085.07-.155.156-.155h6.799c4.739,0,7.44,2.238,7.44,5.96,0,3.751-2.703,5.989-7.44,5.989h-4.186c-.085,0-.155.068-.156.154h0v6.8c-.002.085-.071.153-.156.154h0ZM47.522,17.96c3.342,0,4.95-1.362,4.95-3.842,0-2.45-1.61-3.812-4.95-3.812h-4.127c-.085,0-.154.069-.155.154v7.345c0,.085.07.155.156.155,0,0,4.126,0,4.126,0ZM59.781,8.313v18.747c0,.085-.069.153-.154.154h-2.211c-.085,0-.154-.069-.155-.154V8.313c0-.085.07-.154.155-.154h2.211c.085,0,.154.069.154.154ZM72.288,13.997h2.211c.085,0,.155.07.155.154v12.911c0,.085-.069.154-.154.154,0,0-.001,0-.002,0h-2.21c-.085,0-.153-.069-.154-.154v-1.532c0-.156-.205-.213-.287-.08-.78,1.27-2.301,2.128-4.058,2.128-3.462,0-4.738-2.269-4.738-5.353v-8.073c0-.085.07-.155.156-.155h2.21c.085,0,.154.07.154.154v7.832c0,2.208.973,3.629,3.069,3.629,1.974,0,3.491-1.574,3.491-4.024v-7.438c.002-.085.072-.153.157-.153h0ZM88.402,24.614c0,.696.395,1.029,1.033,1.029.247,0,.611-.06.936-.194.104-.043.219.027.219.139v1.048c0,.042-.016.082-.046.112-.447.431-.99.74-1.988.74-1.235,0-2.146-.839-2.424-2.162-.018-.083-.099-.136-.182-.119-.041.009-.077.034-.099.069-.843,1.342-2.583,2.301-4.553,2.301-2.58,0-4.251-1.391-4.251-3.659,0-2.51,2.155-3.539,5.344-4.174l3.46-.702c.072-.014.124-.077.125-.15v-.387c0-1.815-1.063-2.934-2.915-2.934s-2.885,1.057-3.305,2.532c-.02.075-.093.122-.169.112l-1.946-.262c-.085-.011-.145-.089-.134-.175,0-.004.001-.009.002-.013.569-2.395,2.524-4.13,5.58-4.13,3.342,0,5.314,1.695,5.314,5.051v5.929h-.002ZM85.972,20.874c0-.085-.068-.154-.153-.155-.011,0-.022.001-.033.003l-2.788.595c-2.096.453-3.432.846-3.432,2.45,0,1.118.759,1.967,2.278,1.967,2.34,0,4.131-1.755,4.131-4.417v-.444s-.003,0-.003,0ZM94.486,27.216h-2.211c-.085,0-.154-.069-.155-.154v-12.911c0-.084.07-.154.155-.154h2.211c.085,0,.155.07.155.154v1.559c0,.156.204.213.286.08.794-1.294,2.387-2.155,4.118-2.155,3.463,0,4.86,2.299,4.86,5.384v8.043c0,.085-.07.154-.155.154h-2.211c-.085,0-.154-.069-.154-.154v-7.832c0-2.208-1.064-3.599-3.158-3.599-2.005,0-3.583,1.572-3.583,3.992v7.439c0,.086-.071.155-.157.156h0ZM112.185,22.617c-1.062,0-2.035-.171-2.842-.513-.046-.02-.099-.016-.142.01-.428.273-.812.683-.812,1.26,0,.725.454,1.149,1.609,1.149h5.193c2.885,0,4.404,1.511,4.404,3.569,0,3.297-3.705,4.567-7.653,4.567-3.584,0-6.56-1.118-6.56-3.569,0-1.365.889-2.285,2.267-2.675.136-.037.153-.224.028-.284-.91-.445-1.324-1.223-1.324-2.092,0-1.075.716-1.857,1.777-2.375.076-.035.109-.125.073-.201-.01-.021-.025-.04-.043-.055-.972-.782-1.533-1.905-1.533-3.267,0-2.783,2.308-4.507,5.558-4.507,1.599,0,3.033.472,4.031,1.256.067.054.165.042.219-.025.002-.002.003-.004.005-.006.728-1.006,1.877-1.623,3.117-1.675.086-.003.158.065.16.151,0,.002,0,.003,0,.005v1.87c0,.083-.068.15-.151.152-.773.022-1.619.197-2.24.467-.078.034-.115.125-.081.204.002.006.005.011.008.016.343.605.551,1.31.551,2.093-.003,2.755-2.342,4.477-5.621,4.477ZM111.942,30.996c3.038,0,5.223-.725,5.223-2.632,0-1.209-1.002-1.634-2.55-1.634h-4.283c-1.367,0-2.55.453-2.55,1.874,0,1.666,1.701,2.392,4.161,2.392ZM112.216,15.267c-1.852,0-3.007,1.029-3.007,2.904,0,1.814,1.153,2.842,3.007,2.842,1.882,0,3.037-1.029,3.037-2.843-.002-1.874-1.155-2.903-3.037-2.903Z"/>
</svg>